<?xml version="1.0" standalone="no"?>
<!DOCTYPE svg PUBLIC "-//W3C//DTD SVG 20010904//EN"
 "http://www.w3.org/TR/2001/REC-SVG-20010904/DTD/svg10.dtd">
<svg version="1.0" xmlns="http://www.w3.org/2000/svg"
 width="400.000000pt" height="400.000000pt" viewBox="0 0 400.000000 400.000000"
 preserveAspectRatio="xMidYMid meet">
<metadata>
Created by potrace 1.11, written by Peter Selinger 2001-2013
</metadata>
<g transform="translate(0.000000,400.000000) scale(0.100000,-0.100000)"
fill="#000000" stroke="none">
<path d="M1524 2840 c-258 -413 -476 -763 -485 -778 -9 -15 -246 -394 -526
-842 l-510 -815 704 -3 c386 -1 1020 -1 1407 0 l704 3 -159 254 c-87 139 -159
256 -159 258 0 2 -5 9 -10 16 -21 25 -160 249 -160 258 0 5 -186 9 -441 9
-367 0 -440 2 -436 14 3 7 26 45 51 85 87 135 450 716 472 755 l22 38 34 -53
c19 -30 176 -280 349 -556 172 -277 333 -533 357 -570 23 -38 47 -77 52 -88 6
-11 34 -57 62 -101 29 -45 87 -136 128 -203 l75 -121 472 0 473 0 -30 48 c-16
26 -179 287 -362 579 -183 293 -513 821 -733 1172 -219 352 -403 637 -409 634
-5 -3 -6 -1 -2 5 3 6 -48 97 -115 204 -67 106 -129 205 -138 220 -66 112 -205
328 -211 328 -3 0 -218 -338 -476 -750z"/>
</g>
</svg>
