<svg xmlns="http://www.w3.org/2000/svg" viewBox="0 0 264 48"  fill-rule="nonzero" stroke-linejoin="round" stroke-miterlimit="2" fill="#444" xmlns:v="https://vecta.io/nano"><path d="M30.043 35.968H11.658l-2.53 10.739H-7.369l19.632-65.055h17.602l19.632 65.055H32.608l-2.565-10.739zm-3.385-14.067L20.886-1.485l-5.737 23.386h11.509zm28.006-40.249h16.14v49.035h25.191v16.02H54.664v-65.055zm48.636 0h43.255v13.889h-27.079v10.34h25.12v13.268h-25.12v12.825h27.863v14.733H103.3v-65.055zm52.555 0h21.236l8.195 39.583 8.159-39.583h21.165v65.055h-13.184V-2.905L191.2 46.707h-11.936l-10.19-49.612v49.612h-13.219v-65.055zm66.237 43.533l15.357-1.199c.333 3.107 1.01 5.473 2.031 7.101 1.663 2.632 4.038 3.949 7.126 3.949 2.304 0 4.08-.673 5.327-2.019s1.87-2.907 1.87-4.682c0-1.686-.593-3.195-1.781-4.526s-3.943-2.589-8.266-3.772c-7.079-1.982-12.127-4.615-15.143-7.899-3.041-3.284-4.561-7.47-4.561-12.558 0-3.343.778-6.501 2.334-9.475s3.895-5.31 7.019-7.011 7.405-2.552 12.845-2.552c6.675 0 11.764 1.546 15.268 4.638s5.588 8.01 6.253 14.755l-15.215 1.109c-.403-2.929-1.253-5.059-2.547-6.39s-3.082-1.997-5.363-1.997c-1.876 0-3.289.496-4.24 1.487s-1.425 2.196-1.425 3.616c0 1.036.392 1.968 1.176 2.796.76.858 2.565 1.657 5.416 2.396 7.055 1.894 12.108 3.809 15.161 5.747s5.273 4.341 6.663 7.211 2.084 6.079 2.084 9.63c0 4.171-.926 8.017-2.779 11.537s-4.442 6.191-7.768 8.01-7.518 2.729-12.577 2.729c-8.884 0-15.036-2.13-18.457-6.39s-5.356-9.674-5.808-16.241z"/></svg>