<svg xmlns="http://www.w3.org/2000/svg" viewBox="0 0 264 48" fill="#eee"  fill-rule="nonzero" stroke-linejoin="round" stroke-miterlimit="2" xmlns:v="https://vecta.io/nano"><path d="M33.357 34.918H13.343l-2.754 11.691H-7.369l21.371-70.818h19.161l21.371 70.818H36.15l-2.793-11.691zm-3.685-15.313L23.389-5.852l-6.245 25.457h12.528zm20.479-43.814h18.385l12.8 50.964 12.606-50.964h17.842l-21.1 70.818H71.639L50.151-24.209zm68.11 0h17.609v70.817h-17.609zm28.004 35.457c0-11.561 2.586-20.562 7.757-27.003s12.373-9.661 21.604-9.661c9.464 0 16.756 3.164 21.876 9.492s7.68 15.192 7.68 26.593c0 8.276-1.119 15.063-3.355 20.361s-5.469 9.419-9.697 12.366-9.496 4.42-15.805 4.42c-6.413 0-11.721-1.272-15.922-3.816s-7.609-6.57-10.221-12.077-3.917-12.398-3.917-20.675zm17.57.097c0 7.149 1.067 12.286 3.2 15.41s5.036 4.685 8.708 4.685c3.775 0 6.697-1.529 8.766-4.589s3.102-8.55 3.102-16.472c0-6.667-1.079-11.538-3.238-14.613s-5.088-4.613-8.785-4.613c-3.543 0-6.387 1.562-8.533 4.685s-3.22 8.293-3.22 15.507zm50.927-35.554h16.407l21.41 39.177v-39.177h16.562v70.818h-16.562L231.285 7.722v38.887h-16.523v-70.818z"/></svg>