<svg xmlns="http://www.w3.org/2000/svg" viewBox="0 0 264 48" fill="#555"  fill-rule="nonzero" stroke-linejoin="round" stroke-miterlimit="2" xmlns:v="https://vecta.io/nano"><path d="M-1.59-24.209h40.165c6.695 0 11.834 1.691 15.418 5.072s5.376 7.568 5.376 12.56c0 4.187-1.279 7.777-3.837 10.772-1.705 1.997-4.2 3.575-7.484 4.734 4.989 1.224 8.66 3.326 11.013 6.304s3.528 6.723 3.528 11.232c0 3.671-.836 6.972-2.51 9.903a18.68 18.68 0 0 1-6.868 6.956c-1.8 1.062-4.515 1.835-8.147 2.318-4.831.644-8.036.967-9.615.967H-1.59v-70.818zM20.056 3.567h9.331c3.347 0 5.676-.587 6.986-1.763s1.966-2.874 1.966-5.096c0-2.061-.656-3.671-1.966-4.831s-3.592-1.739-6.844-1.739h-9.473V3.567zm0 27.825h10.941c3.695 0 6.3-.668 7.815-2.005s2.274-3.132 2.274-5.386c0-2.093-.75-3.776-2.25-5.048s-4.129-1.908-7.886-1.908H20.056v14.347zm94.824 3.526H90.44l-3.363 11.691h-21.93l26.098-70.818h23.398l26.098 70.818H118.29l-3.41-11.691zm-4.5-15.313l-7.673-25.457-7.625 25.457h15.298zm66.122-43.814h21.503v38.5c0 8.084-.702 14.235-2.107 18.454s-4.232 7.793-8.479 10.724-9.686 4.396-16.317 4.396c-7.01 0-12.441-.967-16.293-2.899a20.65 20.65 0 0 1-8.929-8.478c-2.099-3.719-3.339-8.316-3.718-13.791l20.509-2.85c.032 3.124.3 5.442.805 6.956s1.358 2.737 2.558 3.671c.821.612 1.989.918 3.505.918 2.4 0 4.16-.91 5.281-2.729s1.682-4.887 1.682-9.203v-43.669zm76.02 59.127h-24.44l-3.363 11.691h-21.93l26.098-70.818h23.398l26.098 70.818h-22.45l-3.411-11.691zm-4.499-15.313l-7.674-25.457-7.625 25.457h15.299z"/></svg>