<svg xmlns="http://www.w3.org/2000/svg" viewBox="0 0 264 48" fill="#444"  fill-rule="nonzero" stroke-linejoin="round" stroke-miterlimit="2" xmlns:v="https://vecta.io/nano"><path d="M46.415 18.86l19.042 5.143c-1.279 4.771-3.293 8.756-6.043 11.956s-6.164 5.614-10.241 7.242-9.265 2.443-15.564 2.443c-7.642 0-13.886-.993-18.73-2.978S5.854 37.187 2.336 32.188-2.94 20.789-2.94 12.989C-2.94 2.59.154-5.402 6.341-10.987s14.941-8.378 26.261-8.378c8.857 0 15.82 1.599 20.888 4.799S62.324-6.452 64.786.176L45.6 3.99c-.672-1.914-1.375-3.314-2.11-4.2-1.216-1.485-2.702-2.628-4.461-3.428s-3.725-1.2-5.9-1.2c-4.924 0-8.697 1.771-11.319 5.314-1.983 2.628-2.974 6.757-2.974 12.385 0 6.971 1.183 11.749 3.549 14.334s5.692 3.879 9.977 3.879c4.157 0 7.298-1.043 9.425-3.129s3.669-5.114 4.628-9.085zm-6.906-40.968H25.695L15.047-34.364h11.847l5.852 6.556 5.851-6.556H50.54L39.509-22.108zm79.764 56.267H94.524L91.118 44.53H68.911l26.428-62.824h23.694l26.429 62.824h-22.735l-3.454-10.371zm-4.556-13.585L106.946-2.01l-7.722 22.584h15.493zm37.699-38.868h21.728v47.353h33.911V44.53h-55.639v-62.824zm65.472 0h58.228v13.413h-36.452v9.985h33.814v12.813h-33.814v12.385h37.508V44.53h-59.284v-62.824z"/></svg>