<svg xmlns="http://www.w3.org/2000/svg" viewBox="0 0 264 48" fill="#eee" fill-rule="nonzero" stroke-linejoin="round" stroke-miterlimit="2" xmlns:v="https://vecta.io/nano"><path d="M36.176 22.191l18.206 4.917c-1.223 4.561-3.149 8.372-5.778 11.431s-5.893 5.367-9.791 6.924-8.858 2.335-14.881 2.335c-7.307 0-13.276-.949-17.908-2.847s-8.629-5.238-11.991-10.018-5.045-10.898-5.045-18.355c0-9.943 2.958-17.584 8.874-22.924s14.285-8.01 25.107-8.01c8.469 0 15.126 1.529 19.971 4.589s8.446 7.757 10.8 14.094L35.397 7.974c-.642-1.831-1.315-3.169-2.018-4.016A11.69 11.69 0 0 0 29.114.68c-1.681-.764-3.562-1.147-5.641-1.147-4.708 0-8.315 1.694-10.822 5.081-1.896 2.513-2.843 6.46-2.843 11.841 0 6.665 1.131 11.233 3.393 13.705s5.442 3.708 9.539 3.708c3.974 0 6.978-.997 9.011-2.991s3.508-4.889 4.425-8.686zm-13.528-51.42h16.05l-14.812 12.25h-8.942l7.704-12.25zm85.571 15.897h20.728v35.81c0 3.551-.619 6.903-1.857 10.058s-3.179 5.914-5.824 8.277-5.419 4.022-8.323 4.978c-4.036 1.338-8.881 2.007-14.537 2.007-3.271 0-6.841-.204-10.708-.614s-7.1-1.222-9.699-2.438-4.976-2.943-7.131-5.183-3.63-4.548-4.425-6.924c-1.284-3.824-1.926-7.211-1.926-10.161v-35.81h20.727v36.67c0 3.278 1.017 5.839 3.05 7.682s4.853 2.766 8.461 2.766c3.577 0 6.382-.908 8.415-2.725s3.049-4.391 3.049-7.723v-36.67zm32.789 0h58.79v12.005l-37.695 35.154h39.071v12.906h-63.789V34.278L174.668-.508h-33.66v-12.824zm110.885 50.15H228.23l-3.256 9.915h-21.232l25.268-60.065h22.654l25.268 60.065h-21.737l-3.302-9.915zm-4.356-12.988l-7.429-21.593-7.384 21.593h14.813z"/></svg>