<svg xmlns="http://www.w3.org/2000/svg" viewBox="0 0 264 48" fill="#eee" fill-rule="nonzero" stroke-linejoin="round" stroke-miterlimit="2" xmlns:v="https://vecta.io/nano"><path d="M50.275 17.378l20.996 5.67c-1.41 5.261-3.631 9.655-6.664 13.184s-6.796 6.19-11.291 7.986-10.217 2.693-17.163 2.693c-8.427 0-15.311-1.095-20.653-3.284S5.549 37.586 1.67 32.073-4.148 19.504-4.148 10.904c0-11.467 3.412-20.28 10.234-26.438s16.475-9.238 28.957-9.238c9.766 0 17.444 1.764 23.033 5.292s9.74 8.947 12.455 16.255L49.375.981c-.74-2.111-1.516-3.655-2.327-4.631a13.47 13.47 0 0 0-4.918-3.78c-1.94-.882-4.108-1.323-6.506-1.323-5.429 0-9.59 1.953-12.481 5.859-2.186 2.898-3.279 7.45-3.279 13.656 0 7.687 1.304 12.955 3.913 15.806s6.277 4.277 11.001 4.277c4.584 0 8.048-1.15 10.393-3.45s4.046-5.639 5.104-10.017zm33.584-40.969h24.011v69.273H83.859zm92.819 40.969l20.997 5.67c-1.411 5.261-3.632 9.655-6.664 13.184s-6.797 6.19-11.292 7.986-10.216 2.693-17.162 2.693c-8.427 0-15.312-1.095-20.653-3.284s-9.952-6.041-13.831-11.554-5.817-12.569-5.817-21.169c0-11.467 3.411-20.28 10.234-26.438s16.474-9.238 28.956-9.238c9.767 0 17.444 1.764 23.033 5.292s9.74 8.947 12.455 16.255L175.779.981c-.741-2.111-1.516-3.655-2.327-4.631a13.48 13.48 0 0 0-4.919-3.78c-1.939-.882-4.108-1.323-6.505-1.323-5.43 0-9.591 1.953-12.482 5.859-2.186 2.898-3.279 7.45-3.279 13.656 0 7.687 1.305 12.955 3.914 15.806s6.276 4.277 11.001 4.277c4.583 0 8.047-1.15 10.392-3.45s4.046-5.639 5.104-10.017zm32.579-40.969h64.207v14.79h-40.196v11.01h37.287v14.129h-37.287v13.656h41.359v15.688h-65.37v-69.273z"/></svg>