<svg xmlns="http://www.w3.org/2000/svg" viewBox="0 0 264 48" fill="#444"  fill-rule="nonzero" stroke-linejoin="round" stroke-miterlimit="2" xmlns:v="https://vecta.io/nano"><path d="M-11.964-8.915H12.74c4.87 0 8.803.591 11.801 1.771s5.475 2.875 7.433 5.084 3.377 4.777 4.258 7.707 1.322 6.034 1.322 9.314c0 5.138-.655 9.122-1.964 11.954s-3.126 5.203-5.451 7.116-4.821 3.187-7.488 3.821c-3.647.875-6.95 1.312-9.911 1.312h-24.704V-8.915zM4.664 1.974v26.269h4.075c3.475 0 5.946-.344 7.415-1.033s2.618-1.891 3.45-3.608 1.248-4.498 1.248-8.346c0-5.094-.93-8.582-2.79-10.462s-4.943-2.82-9.25-2.82H4.664zm71.505 29.253H57.228l-2.606 7.937H37.627L57.852-8.915h18.133l20.226 48.079H78.812l-2.643-7.937zm-3.487-10.396L66.735 3.548l-5.909 17.283h11.856zm25.951 2.427l15.821-.886c.343 2.296 1.04 4.045 2.092 5.248 1.713 1.946 4.16 2.919 7.342 2.919 2.373 0 4.202-.498 5.487-1.493s1.927-2.148 1.927-3.46c0-1.246-.611-2.361-1.835-3.345s-4.062-1.913-8.516-2.787c-7.292-1.465-12.492-3.411-15.6-5.838-3.133-2.427-4.699-5.521-4.699-9.281 0-2.471.802-4.805 2.405-7.002s4.013-3.925 7.231-5.182 7.629-1.886 13.233-1.886c6.876 0 12.119 1.143 15.728 3.428s5.757 5.919 6.442 10.904l-15.673.82c-.416-2.164-1.291-3.739-2.625-4.722s-3.175-1.476-5.524-1.476c-1.934 0-3.39.366-4.368 1.098s-1.469 1.624-1.469 2.673c0 .765.404 1.454 1.212 2.066.783.634 2.643 1.225 5.579 1.771 7.268 1.4 12.474 2.815 15.619 4.247s5.432 3.209 6.864 5.33 2.147 4.493 2.147 7.116c0 3.083-.954 5.925-2.863 8.527s-4.576 4.575-8.002 5.92-7.745 2.017-12.957 2.017c-9.153 0-15.491-1.574-19.014-4.723s-5.519-7.149-5.984-12.003zm57.263-32.173h16.628V9.254L189.96-8.915h22.097L192.456 9.221l20.482 29.943h-20.482l-11.343-19.776-8.589 8.035v11.741h-16.628V-8.915zm95.657 40.142h-18.94l-2.606 7.937h-16.996l20.226-48.079h18.133l20.225 48.079h-17.399l-2.643-7.937zm-3.487-10.396L242.12 3.548l-5.91 17.283h11.856z"/></svg>