<svg xmlns="http://www.w3.org/2000/svg" viewBox="0 0 1100 200" fill="#555" fill-rule="nonzero" stroke-linejoin="round" stroke-miterlimit="2" xmlns:v="https://vecta.io/nano"><path d="M-32.927-51.026h98.948c19.549 0 35.188 2.39 47.219 7.171 12.03 4.515 21.955 11.155 29.775 19.919S156.248-5.08 159.857 6.34c3.609 11.686 5.113 23.903 5.113 36.916 0 20.981-2.707 36.916-7.82 48.071-5.414 11.155-12.932 20.45-21.955 27.886-9.323 7.436-19.248 12.482-30.075 14.873-14.436 3.453-27.369 5.046-39.098 5.046h-98.948V58.395h-22.557V29.712h22.557v-80.738zM33.54-8.001v37.713h32.482v28.683H33.54v37.447h16.542c13.835 0 23.76-1.328 29.474-3.984 6.015-2.656 10.526-7.436 13.835-14.342 3.308-6.64 5.113-17.794 5.113-32.933 0-20.184-3.91-33.995-11.429-41.431S67.224-8.001 50.081-8.001H33.54zm158.147 52.32c0-31.073 9.925-55.242 29.474-72.505s46.918-26.027 81.805-26.027c35.79 0 63.459 8.499 82.708 25.496 19.549 16.997 29.173 40.635 29.173 71.442 0 22.044-4.211 40.369-12.632 54.711-8.421 14.076-20.752 25.231-36.692 33.198-15.94 7.702-36.091 11.686-59.85 11.686-24.361 0-44.512-3.453-60.452-10.092-15.94-6.905-28.572-17.794-38.497-32.401-9.925-14.873-15.038-33.464-15.038-55.507zm66.768.266c0 19.122 3.91 32.933 12.03 41.166 8.12 8.499 18.948 12.748 33.083 12.748s25.263-4.249 33.083-12.482 11.729-22.84 11.729-44.087c0-18.06-4.211-31.073-12.331-39.307S316.801-9.86 302.966-9.86c-13.534 0-24.361 4.249-32.482 12.748-8.12 8.233-12.03 22.309-12.03 41.697zm192.783-95.611h61.956l81.204 105.172V-51.026h62.557v190.159h-62.557L513.795 34.758v104.375h-62.557V-51.026zm379.631 158.82h-75.79l-10.526 31.339h-67.971l80.903-190.159h72.482l80.903 190.159h-69.474l-10.526-31.339zm-14.135-41.166l-23.76-68.255-23.459 68.255h47.219zm104.007 9.561l63.159-3.453c1.504 9.03 4.211 15.935 8.421 20.716 6.917 7.702 16.542 11.686 29.474 11.686 9.323 0 16.842-2.125 21.955-6.108 5.113-3.718 7.519-8.499 7.519-13.545s-2.406-9.295-7.218-13.279-16.241-7.436-33.985-10.889c-29.173-5.843-50.226-13.545-62.557-23.106-12.632-9.827-18.647-22.044-18.647-36.916 0-9.561 3.008-18.857 9.624-27.621 6.316-8.764 15.94-15.404 28.872-20.45s30.376-7.436 52.933-7.436c27.369 0 48.422 4.515 62.858 13.545s23.158 23.371 25.865 43.025l-62.858 3.453c-1.504-8.764-5.113-14.873-10.526-18.857-5.414-3.718-12.632-5.843-21.955-5.843-7.82 0-13.534 1.594-17.444 4.515S990.216-8 990.216-4.016c0 3.187 1.504 5.843 4.812 8.233 3.308 2.656 10.526 4.781 22.256 7.171 29.173 5.312 49.925 10.889 62.557 16.732 12.632 5.577 21.654 12.748 27.669 20.981 5.714 8.499 8.421 17.794 8.421 28.152 0 12.217-3.91 23.371-11.429 33.729s-18.346 18.06-31.88 23.371c-13.835 5.312-30.978 7.968-52.031 7.968-36.692 0-61.956-6.108-76.091-18.591s-21.955-28.418-23.76-47.54zm118.798-138.635h-42.106l-32.782-37.182h36.391l17.745 19.919 18.045-19.919h36.391l-33.685 37.182z"/></svg>