<svg xmlns="http://www.w3.org/2000/svg" viewBox="0 0 1100 200"  fill-rule="nonzero" stroke-linejoin="round" stroke-miterlimit="2" xmlns:v="https://vecta.io/nano"><path d="M-19.366-65.472h129.123c25.511 0 45.919 3.119 61.618 9.358 15.699 5.892 28.65 14.556 38.855 25.993s17.66 24.607 21.978 39.856c4.71 15.249 7.064 31.192 7.064 48.174 0 26.34-3.532 46.788-10.204 61.691-7.064 14.556-16.484 26.686-28.65 36.737-12.167 9.704-25.118 16.289-38.855 19.408-19.231 4.505-36.5 6.932-51.806 6.932H-19.366V-65.472zM67.37-9.326v135.511h21.586c18.054 0 31.005-1.733 38.462-5.199 7.849-3.466 13.736-9.704 18.054-18.715 4.317-8.664 6.672-23.221 6.672-42.975 0-26.34-5.102-44.362-14.521-54.066-9.812-9.704-25.903-14.556-48.274-14.556H67.37zm210.298-56.146h245.687v49.56L365.974 129.304h163.268v53.373H262.754v-51.293l155.811-143.83H277.668v-53.026zm147.177-14.903h-54.946l-42.779-48.521h47.489l23.156 25.993 23.548-25.993h47.489l-43.957 48.521zM568.16-65.472h232.735v53.026H654.896v39.51h135.402v50.6H654.896v48.867H804.82v56.145H568.16V-65.472zm283.827 0h86.736V28.45l91.053-93.922h115.386L1043.12 28.104l106.752 154.573H1043.12L983.857 80.784l-45.134 41.243v60.651h-86.736v-248.15z"/></svg>