<svg xmlns="http://www.w3.org/2000/svg" viewBox="0 0 1100 200"  fill-rule="nonzero" stroke-linejoin="round" stroke-miterlimit="2" xmlns:v="https://vecta.io/nano"><path d="M10.333-50.941h178.348v40.635H76.8V19.97h103.76v38.775H76.8v37.447h114.888v43.025H10.333V-50.941zm217.496 0h66.467v71.974l69.775-71.974h88.422l-78.196 71.708 81.805 118.451h-81.805l-45.414-78.082-34.587 31.605v46.477h-66.467V-50.941zM466.63 76.274l63.159-3.453c1.504 9.03 4.211 15.935 8.421 20.716 6.917 7.702 16.542 11.686 29.474 11.686 9.323 0 16.842-2.125 21.955-6.108 5.113-3.718 7.519-8.499 7.519-13.545s-2.406-9.295-7.218-13.279-16.241-7.436-33.985-10.889c-29.173-5.843-50.226-13.545-62.557-23.106-12.632-9.827-18.647-22.044-18.647-36.916 0-9.561 3.008-18.857 9.624-27.621 6.316-8.764 15.94-15.404 28.872-20.45s30.376-7.436 52.933-7.436c27.369 0 48.422 4.515 62.858 13.545s23.158 23.371 25.865 43.025l-62.858 3.453c-1.504-8.764-5.113-14.873-10.526-18.857-5.414-3.718-12.632-5.843-21.955-5.843-7.82 0-13.534 1.594-17.444 4.515s-6.015 6.374-6.015 10.358c0 3.187 1.504 5.843 4.812 8.233 3.308 2.656 10.526 4.781 22.256 7.171 29.173 5.312 49.925 10.889 62.557 16.732 12.632 5.577 21.654 12.748 27.669 20.981 5.714 8.499 8.421 17.794 8.421 28.152 0 12.217-3.91 23.371-11.429 33.729s-18.346 18.06-31.88 23.371c-13.835 5.312-30.978 7.968-52.031 7.968-36.692 0-61.956-6.108-76.091-18.591s-21.955-28.418-23.76-47.54zM695.258-50.941h178.348v40.635H761.725V19.97h103.76v38.775h-103.76v37.447h114.888v43.025H695.258V-50.941zm218.095 190.159V-50.941h110.979c20.451 0 36.091 1.594 47.219 4.781 10.827 2.921 19.549 8.764 26.166 17.263s9.925 18.591 9.925 30.808c0 10.623-2.406 19.653-7.519 27.355s-12.03 13.81-21.053 18.591c-5.714 2.921-13.534 5.577-23.459 7.436 8.12 2.39 13.835 4.781 17.444 6.905 2.406 1.594 6.015 5.046 10.526 10.092 4.812 5.046 7.82 9.03 9.323 11.686l32.181 55.242h-75.189l-35.489-58.163c-4.511-7.436-8.421-12.217-12.03-14.607-4.812-2.921-10.226-4.515-16.241-4.515h-6.015v77.285h-66.768zm66.768-113.139h28.271c3.008 0 8.722-.797 17.444-2.656 4.511-.531 8.12-2.656 10.827-5.843s4.211-6.905 4.211-11.155c0-6.108-2.105-10.623-6.617-14.076-4.511-3.187-12.632-4.781-24.662-4.781h-29.474v38.51z"/></svg>