<svg xmlns="http://www.w3.org/2000/svg" viewBox="0 0 1100 200" fill="#eee" fill-rule="nonzero" stroke-linejoin="round" stroke-miterlimit="2" xmlns:v="https://vecta.io/nano"><path d="M10.634-50.941h164.513v40.9H77.401v33.198h83.61v38.51h-83.61v77.551H10.634V-50.941zm191.879 95.345c0-31.073 9.925-55.242 29.474-72.505s46.918-26.027 81.805-26.027c35.79 0 63.459 8.499 82.708 25.496 19.549 16.997 29.173 40.635 29.173 71.442 0 22.044-4.211 40.369-12.632 54.711-8.421 14.076-20.752 25.231-36.692 33.198-15.94 7.702-36.091 11.686-59.85 11.686-24.361 0-44.512-3.453-60.452-10.092-15.94-6.905-28.572-17.794-38.497-32.401-9.925-14.873-15.038-33.464-15.038-55.507zm66.768.266c0 19.122 3.91 32.933 12.03 41.166 8.12 8.499 18.948 12.748 33.083 12.748s25.263-4.249 33.083-12.482 11.729-22.84 11.729-44.087c0-18.06-4.211-31.073-12.331-39.307S327.627-9.775 313.792-9.775c-13.534 0-24.361 4.249-32.482 12.748-8.12 8.233-12.03 22.309-12.03 41.697zm169.361-95.611h202.107v47.009h-67.67v143.15h-66.467V-3.933h-67.971v-47.009zm232.537 0h66.467v71.974l69.775-71.974h88.422l-78.196 71.708 81.805 118.451h-81.805l-45.414-78.082-34.587 31.605v46.477h-66.467V-50.941zm382.861 158.82h-75.79l-10.526 31.339h-67.971l80.903-190.159h72.482l80.903 190.159h-69.474l-10.526-31.339zm-14.135-41.166l-23.76-68.255-23.459 68.255h47.219z"/></svg>