<svg xmlns="http://www.w3.org/2000/svg" viewBox="0 0 1100 200"  fill-rule="nonzero" stroke-linejoin="round" stroke-miterlimit="2" xmlns:v="https://vecta.io/nano"><path d="M89.265 71.267V31.695h102.858v81.003c-19.85 11.951-36.993 19.919-52.331 24.168-15.038 4.249-33.083 6.374-53.835 6.374-25.564 0-46.316-3.718-62.256-11.42-16.241-7.702-28.572-19.122-37.594-34.526-8.722-15.138-13.233-32.667-13.233-52.32 0-20.716 4.812-38.775 14.436-54.179s24.06-26.824 42.707-34.792c14.436-6.108 34.286-9.295 58.948-9.295 23.76 0 41.504 1.859 53.234 5.577 11.729 3.984 21.654 9.827 29.474 17.794s13.534 18.06 17.444 30.542l-64.061 10.092c-2.707-7.171-7.218-12.748-13.534-16.466-6.316-3.984-14.436-5.843-24.06-5.843-14.737 0-26.166 4.515-34.888 13.545-8.722 8.764-12.932 23.106-12.932 42.494 0 20.45 4.211 35.057 12.932 44.087 8.722 8.764 21.053 13.014 36.692 13.014 7.519 0 14.436-.797 21.354-2.656 6.617-1.859 14.436-5.312 23.158-9.827V71.267H89.265zm274.893 37.448h-75.79l-10.526 31.339h-67.971l80.903-190.159h72.482l80.903 190.159h-69.474l-10.526-31.339zm-14.135-41.166L326.263-.706l-23.459 68.255h47.219zM465.759-50.105h124.513c20.752 0 36.692 4.515 47.82 13.545 11.128 9.295 16.542 20.45 16.542 33.729 0 11.42-3.91 20.981-11.729 28.949-5.414 5.312-13.233 9.561-23.459 12.748 15.639 3.453 27.068 9.03 34.286 16.997s10.827 18.06 10.827 30.011c0 9.827-2.406 18.857-7.82 26.558-5.113 7.968-12.03 14.342-21.053 18.857-5.714 2.921-14.135 4.781-25.263 6.108-15.038 1.859-24.963 2.656-29.775 2.656H465.759V-50.105zm67.068 74.629H561.7c10.526 0 17.745-1.594 21.654-4.781 4.211-3.187 6.015-7.702 6.015-13.545 0-5.577-1.805-10.092-6.015-13.014-3.91-3.187-11.128-4.781-21.053-4.781h-29.474v36.12zm0 74.629h33.985c11.429 0 19.549-1.859 24.06-5.312 4.812-3.718 7.218-8.499 7.218-14.607 0-5.577-2.406-10.092-7.218-13.545-4.511-3.187-12.632-5.046-24.361-5.046h-33.685v38.51zm158.15-53.913c0-31.073 9.925-55.242 29.474-72.505s46.918-26.027 81.805-26.027c35.79 0 63.459 8.499 82.708 25.496 19.549 16.997 29.173 40.635 29.173 71.442 0 22.044-4.211 40.369-12.632 54.711-8.421 14.076-20.752 25.231-36.692 33.198-15.94 7.702-36.091 11.686-59.85 11.686-24.361 0-44.512-3.453-60.452-10.092-15.94-6.905-28.572-17.794-38.497-32.401-9.925-14.873-15.038-33.464-15.038-55.507zm66.768.266c0 19.122 3.91 32.933 12.03 41.166 8.12 8.499 18.948 12.748 33.083 12.748s25.263-4.249 33.083-12.482 11.729-22.84 11.729-44.087c0-18.06-4.211-31.073-12.331-39.307S816.091-8.939 802.256-8.939c-13.534 0-24.361 4.249-32.482 12.748-8.12 8.233-12.03 22.309-12.03 41.697zm193.084 94.548V-50.105h110.979c20.451 0 36.091 1.594 47.219 4.781 10.827 2.921 19.549 8.764 26.166 17.263s9.925 18.591 9.925 30.808c0 10.623-2.406 19.653-7.519 27.355s-12.03 13.81-21.053 18.591c-5.714 2.921-13.534 5.577-23.459 7.436 8.12 2.39 13.835 4.781 17.444 6.905 2.406 1.594 6.015 5.046 10.526 10.092 4.812 5.046 7.82 9.03 9.323 11.686l32.181 55.242h-75.189l-35.489-58.163c-4.511-7.436-8.421-12.217-12.03-14.607-4.812-2.921-10.226-4.515-16.241-4.515h-6.015v77.285h-66.768zm66.768-113.139h28.271c3.008 0 8.722-.797 17.444-2.656 4.511-.531 8.12-2.656 10.827-5.843s4.211-6.905 4.211-11.155c0-6.108-2.105-10.623-6.617-14.076-4.511-3.187-12.632-4.781-24.662-4.781h-29.474v38.51z"/></svg>