<svg xmlns="http://www.w3.org/2000/svg" viewBox="0 0 1100 200" fill="#555" fill-rule="nonzero" stroke-linejoin="round" stroke-miterlimit="2" xmlns:v="https://vecta.io/nano"><path d="M-18.706-50.105H47.76v66.662h72.783v-66.662h66.768v190.159h-66.768v-77.02H47.76v77.02h-66.467V-50.105zm382.864 158.82h-75.79l-10.526 31.339h-67.971l80.903-190.159h72.482l80.903 190.159h-69.474l-10.526-31.339zm-14.135-41.166L326.263-.706l-23.459 68.255h47.219zM465.759-50.105h66.467v66.662h72.783v-66.662h66.768v190.159h-66.768v-77.02h-72.783v77.02h-66.467V-50.105zm382.867 158.82h-75.79l-10.526 31.339h-67.971l80.903-190.159h72.482l80.903 190.159h-69.474l-10.526-31.339zm-14.135-41.166L810.731-.706l-23.459 68.255h47.219zm116.338 72.505V-50.105h110.979c20.451 0 36.091 1.594 47.219 4.781 10.827 2.921 19.549 8.764 26.166 17.263s9.925 18.591 9.925 30.808c0 10.623-2.406 19.653-7.519 27.355s-12.03 13.81-21.053 18.591c-5.714 2.921-13.534 5.577-23.459 7.436 8.12 2.39 13.835 4.781 17.444 6.905 2.406 1.594 6.015 5.046 10.526 10.092 4.812 5.046 7.82 9.03 9.323 11.686l32.181 55.242h-75.189l-35.489-58.163c-4.511-7.436-8.421-12.217-12.03-14.607-4.812-2.921-10.226-4.515-16.241-4.515h-6.015v77.285h-66.768zm66.768-113.139h28.271c3.008 0 8.722-.797 17.444-2.656 4.511-.531 8.12-2.656 10.827-5.843s4.211-6.905 4.211-11.155c0-6.108-2.105-10.623-6.617-14.076-4.511-3.187-12.632-4.781-24.662-4.781h-29.474v38.51z"/></svg>