<svg xmlns="http://www.w3.org/2000/svg" viewBox="0 0 1100 200"  fill-rule="nonzero" stroke-linejoin="round" stroke-miterlimit="2" xmlns:v="https://vecta.io/nano"><path d="M-10.378-18.032H26.17V86.06h-36.548zm59.622 0h103.059v20.79L86.286 63.671h68.486V86.06H42.988V64.544l65.358-60.332H49.244v-22.243zm181.122 66.439V26.745h56.304v44.341c-10.866 6.542-20.25 10.903-28.646 13.229-8.232 2.326-18.109 3.489-29.469 3.489-13.994 0-25.353-2.035-34.079-6.251-8.89-4.216-15.64-10.467-20.579-18.899-4.774-8.287-7.244-17.882-7.244-28.64 0-11.34 2.634-21.225 7.902-29.657s13.17-14.683 23.378-19.045c7.902-3.344 18.768-5.088 32.268-5.088 13.006 0 22.719 1.018 29.14 3.053 6.421 2.181 11.853 5.379 16.134 9.74s7.408 9.886 9.549 16.719l-35.066 5.524c-1.482-3.925-3.951-6.978-7.408-9.013-3.457-2.181-7.902-3.198-13.17-3.198-8.067 0-14.323 2.471-19.097 7.414-4.774 4.798-7.079 12.648-7.079 23.261 0 11.194 2.305 19.19 7.079 24.133 4.774 4.798 11.524 7.124 20.085 7.124 4.116 0 7.902-.436 11.689-1.454 3.622-1.018 7.902-2.908 12.677-5.379v-9.74h-24.365zm73.261-14.247c0-17.009 5.433-30.239 16.134-39.688s25.682-14.247 44.779-14.247c19.591 0 34.737 4.652 45.273 13.956 10.701 9.304 15.969 22.243 15.969 39.107 0 12.066-2.305 22.098-6.914 29.948-4.61 7.705-11.36 13.811-20.085 18.172-8.725 4.216-19.756 6.397-32.761 6.397-13.335 0-24.365-1.89-33.091-5.524-8.725-3.78-15.64-9.74-21.073-17.736-5.433-8.141-8.232-18.318-8.232-30.384zm36.548.145c0 10.467 2.14 18.027 6.585 22.534 4.445 4.652 10.372 6.978 18.109 6.978s13.829-2.326 18.109-6.833 6.421-12.503 6.421-24.133c0-9.886-2.305-17.009-6.75-21.516s-10.536-6.833-18.109-6.833c-7.408 0-13.335 2.326-17.78 6.978-4.445 4.507-6.585 12.212-6.585 22.825zM445.871 86.06V-18.032h60.749c11.195 0 19.756.872 25.847 2.617 5.927 1.599 10.701 4.798 14.323 9.45s5.433 10.177 5.433 16.864c0 5.815-1.317 10.758-4.116 14.974s-6.585 7.56-11.524 10.177c-3.128 1.599-7.408 3.053-12.841 4.071 4.445 1.308 7.573 2.617 9.549 3.78 1.317.872 3.293 2.762 5.762 5.524 2.634 2.762 4.28 4.943 5.104 6.397l17.615 30.239h-41.158l-19.426-31.838c-2.469-4.071-4.61-6.687-6.585-7.996-2.634-1.599-5.597-2.471-8.89-2.471h-3.293V86.06h-36.548zm36.548-61.931h15.475c1.646 0 4.774-.436 9.549-1.454 2.469-.291 4.445-1.454 5.927-3.198s2.305-3.78 2.305-6.106c0-3.344-1.152-5.815-3.622-7.705-2.469-1.745-6.914-2.617-13.5-2.617h-16.134v21.08zm91.011-42.161h97.626V4.211h-61.243v16.573h56.798V42.01h-56.798v20.498h62.889V86.06H573.43V-18.032zm110.661 0h110.632V7.701h-37.042V86.06h-36.383V7.701h-37.206v-25.732zm128.603 0h36.548V86.06h-36.548zm62.915 0h33.914l44.45 57.57v-57.57h34.243V86.06h-34.243l-44.121-57.134V86.06h-34.243V-18.032zm207.803 86.937h-41.487l-5.762 17.155h-37.206l44.286-104.091h39.676l44.286 104.091h-38.03l-5.762-17.155zm-7.738-22.534l-13.006-37.362-12.841 37.362h25.847z"/></svg>