<svg xmlns="http://www.w3.org/2000/svg" viewBox="0 0 1100 200" fill="#555" fill-rule="nonzero" stroke-linejoin="round" stroke-miterlimit="2" xmlns:v="https://vecta.io/nano"><path d="M57.566-42.081h58.58v90.644c0 19.107-1.847 33.555-5.805 43.574-3.694 10.02-11.61 18.408-22.957 25.166-11.61 6.991-26.387 10.486-44.595 10.486-18.999 0-33.776-2.33-44.331-6.991-10.291-4.427-18.471-11.185-24.276-19.807-5.541-8.855-8.972-19.574-10.027-32.623l55.942-6.758c0 7.457.792 13.049 2.111 16.544s3.694 6.291 6.861 8.622c2.375 1.398 5.541 2.097 9.499 2.097 6.597 0 11.347-2.097 14.513-6.291 2.903-4.427 4.486-11.651 4.486-21.671V-42.081zM264.474 97.264h-66.497l-9.236 27.496h-59.636l70.982-166.841h63.594l70.982 166.841h-60.955l-9.236-27.496zm-12.402-36.118L231.226 1.26l-20.582 59.886h41.428zm179.92-103.227h58.58v90.644c0 19.107-1.847 33.555-5.805 43.574-3.694 10.02-11.611 18.408-22.957 25.166-11.61 6.991-26.387 10.486-44.595 10.486-18.999 0-33.776-2.33-44.331-6.991-10.291-4.427-18.471-11.185-24.276-19.807-5.541-8.855-8.972-19.574-10.027-32.623l55.941-6.758c0 7.457.792 13.049 2.111 16.544s3.694 6.291 6.861 8.622c2.375 1.398 5.541 2.097 9.5 2.097 6.597 0 11.347-2.097 14.513-6.291 2.903-4.427 4.486-11.651 4.486-21.671V-42.081zM638.896 97.264H572.4l-9.236 27.496h-59.636L574.51-42.081h63.594l70.982 166.841h-60.955l-9.236-27.496zm-12.402-36.118L605.648 1.26l-20.582 59.886h41.428zm102.077 63.614V-42.081h97.37c17.943 0 31.665 1.398 41.428 4.194 9.5 2.563 17.152 7.69 22.957 15.146s8.708 16.311 8.708 27.03c0 9.321-2.111 17.243-6.597 24.001s-10.555 12.117-18.471 16.311c-5.014 2.563-11.874 4.893-20.582 6.525 7.125 2.097 12.138 4.194 15.305 6.058 2.111 1.398 5.277 4.427 9.236 8.855 4.222 4.427 6.861 7.923 8.18 10.253l28.235 48.468h-65.969l-31.137-51.031c-3.958-6.525-7.389-10.719-10.555-12.816-4.222-2.563-8.972-3.961-14.249-3.961h-5.278v67.808h-58.58zm58.58-99.266h24.804c2.639 0 7.652-.699 15.305-2.33 3.958-.466 7.125-2.33 9.5-5.126s3.694-6.058 3.694-9.787c0-5.359-1.847-9.321-5.805-12.35-3.958-2.796-11.083-4.194-21.638-4.194h-25.86v33.788z"/><path d="M1049.401 97.264h-66.496l-9.236 27.496h-59.636l70.982-166.841h63.594l70.982 166.841h-60.955l-9.236-27.496zm-12.402-36.118L1016.153 1.26l-20.582 59.886h41.428z"/></svg>