<svg xmlns="http://www.w3.org/2000/svg" viewBox="0 0 1100 200" fill="#555" fill-rule="nonzero" stroke-linejoin="round" stroke-miterlimit="2" xmlns:v="https://vecta.io/nano"><path d="M-57.9-17.844H2.215L43.932 89.234 85.131-17.844h58.042L74.508 131.025H12.32L-57.9-17.844zm203.833 74.643c0-24.326 8.551-43.247 25.393-56.761s40.422-20.376 70.479-20.376c30.835 0 54.673 6.653 71.257 19.96 16.842 13.307 25.134 31.811 25.134 55.93 0 17.257-3.628 31.603-10.883 42.831-7.255 11.02-17.879 19.752-31.612 25.99-13.733 6.03-31.094 9.148-51.564 9.148-20.988 0-38.349-2.703-52.082-7.901-13.733-5.406-24.616-13.93-33.167-25.366-8.551-11.643-12.956-26.198-12.956-43.455zm57.524.208c0 14.97 3.368 25.782 10.365 32.227 6.996 6.653 16.324 9.98 28.503 9.98s21.766-3.327 28.503-9.772 10.105-17.881 10.105-34.514c0-14.138-3.628-24.326-10.624-30.772s-16.583-9.772-28.503-9.772c-11.66 0-20.988 3.327-27.984 9.98-6.996 6.445-10.365 17.465-10.365 32.643zm160.91-74.851h162.206v29.732L422.668 99.006H530.46v32.019H354.521v-30.772L457.39 13.967h-93.022v-31.811zm192.569 0h85.249c16.842 0 30.316 1.871 40.681 5.614 10.365 3.535 18.915 8.733 25.652 15.594s11.66 14.762 14.51 23.91c3.109 9.148 4.664 18.713 4.664 28.9 0 15.802-2.332 28.069-6.737 37.009-4.664 8.733-10.883 16.01-18.915 22.039-8.033 5.822-16.583 9.772-25.652 11.643-12.697 2.703-24.098 4.158-34.203 4.158h-85.249V-17.844zM614.2 15.839v81.296h14.251c11.919 0 20.47-1.04 25.393-3.119 5.182-2.079 9.069-5.822 11.919-11.228 2.85-5.198 4.405-13.93 4.405-25.782 0-15.802-3.368-26.613-9.587-32.435-6.478-5.822-17.102-8.733-31.871-8.733H614.2zm144.281 115.186V-17.844h95.613c17.62 0 31.094 1.248 40.681 3.743 9.328 2.287 16.842 6.861 22.543 13.515s8.551 14.554 8.551 24.118c0 8.317-2.073 15.386-6.478 21.415s-10.365 10.812-18.138 14.554c-4.923 2.287-11.66 4.366-20.211 5.822 6.996 1.871 11.919 3.743 15.029 5.406 2.073 1.248 5.182 3.95 9.069 7.901 4.146 3.95 6.737 7.069 8.033 9.148l27.725 43.247h-64.779l-30.576-45.534c-3.887-5.822-7.255-9.564-10.365-11.435-4.146-2.287-8.81-3.535-13.992-3.535h-5.182v60.504H758.48zm57.524-88.573h24.357c2.591 0 7.514-.624 15.029-2.079 3.887-.416 6.996-2.079 9.328-4.574s3.628-5.406 3.628-8.733c0-4.782-1.814-8.317-5.701-11.02-3.887-2.495-10.883-3.743-21.247-3.743h-25.393v30.148z"/><path d="M1073.523 106.491h-65.297l-9.069 24.534h-58.56l69.702-148.869h62.447l69.702 148.869h-59.856l-9.069-24.534zm-12.178-32.227l-20.47-53.435-20.211 53.435h40.681z"/></svg>