<svg xmlns="http://www.w3.org/2000/svg" viewBox="0 0 1100 200"  fill="#555" fill-rule="nonzero" stroke-linejoin="round" stroke-miterlimit="2" xmlns:v="https://vecta.io/nano"><path d="M-10.902-26.001h72.841v142.815H175.98v46.547H-10.902V-26.001zm219.839 0h195.451v40.464h-122.61v30.15h113.711v38.613H281.778v37.291h125.906v42.845H208.937V-26.001zm214.621 0h76.467l53.065 136.204 52.406-136.204h73.83l-87.343 189.363H512.88L423.558-26.001zm406.301 158.155H746.8l-11.536 31.208h-74.489l88.662-189.363h79.433l88.662 189.363h-76.137l-11.536-31.208zm-15.491-40.993l-26.038-67.97-25.709 67.97h51.747zm87.337-117.162h221.49v46.812h-74.159v142.551h-72.841V20.811h-74.489v-46.812z"/></svg>