<svg xmlns="http://www.w3.org/2000/svg" viewBox="0 0 1100 200" fill="#eee" fill-rule="nonzero" stroke-linejoin="round" stroke-miterlimit="2" xmlns:v="https://vecta.io/nano"><path d="M-11.167-37.319h72.841v142.815h114.041v46.547H-11.167V-37.319zm318.059 0h73.171v102.88c0 21.687-2.307 38.084-7.251 49.456-4.614 11.372-14.502 20.893-28.675 28.563-14.502 7.934-32.96 11.901-55.702 11.901-23.731 0-42.188-2.645-55.372-7.934-12.854-5.025-23.072-12.695-30.323-22.48-6.922-10.05-11.206-22.216-12.525-37.026l69.875-7.67c0 8.463.989 14.81 2.637 18.778s4.614 7.141 8.57 9.786c2.966 1.587 6.922 2.38 11.866 2.38 8.24 0 14.173-2.38 18.128-7.141 3.626-5.025 5.603-13.224 5.603-24.596V-37.319zm275.214 0h72.841v112.93c0 11.108-2.307 21.687-6.592 31.737-4.285 9.786-11.206 18.513-20.435 25.918-9.229 7.67-19.117 12.695-29.334 15.868-14.173 4.232-30.982 6.347-50.758 6.347-11.536 0-24.061-.793-37.574-2.116-13.843-1.322-25.049-3.703-34.278-7.67-8.899-3.703-17.469-9.257-25.049-16.133-7.581-7.141-12.525-14.546-15.491-21.951-4.285-12.166-6.592-22.745-6.592-32.001V-37.32h72.511V78.256c0 10.314 3.626 18.513 10.877 24.332s17.139 8.728 29.664 8.728 22.413-2.909 29.664-8.728c6.922-5.554 10.547-13.753 10.547-24.332V-37.319zm104.482 0h221.49V9.493h-74.159v142.551h-72.841V9.493h-74.489v-46.812zm377.488 158.155h-83.059l-11.536 31.208h-74.489l88.662-189.363h79.433l88.662 189.363h-76.137l-11.536-31.208zm-15.491-40.993l-26.038-67.97-25.709 67.97h51.747z"/></svg>