<svg xmlns="http://www.w3.org/2000/svg" viewBox="0 0 1100 200"  fill="#eee" fill-rule="nonzero" stroke-linejoin="round" stroke-miterlimit="2" xmlns:v="https://vecta.io/nano"><path d="M-21.649-30.784h88.02l33.877 105.821 33.877-105.821h87.718v173.78h-54.748V10.476l-42.346 132.519H75.445L33.099 10.476v132.519h-54.748v-173.78zm286.096 0h179.367V6.35h-112.52v27.669h104.354v35.436H331.294v34.222h115.545v39.319H264.447v-173.78zm203.311 0h203.263v42.959h-68.057v130.82h-66.847V12.175h-68.359v-42.959zm346.424 145.14h-76.224l-10.587 28.64h-68.359l81.366-173.78h72.896l81.366 173.78h-69.872l-10.587-28.64zm-14.216-37.62L776.071 14.36l-23.593 62.376h47.488zM916.37-30.784h66.847V34.99l70.174-65.774h88.928l-78.643 65.531 82.273 108.248h-82.273l-45.674-71.356-34.785 28.882v42.474H916.37v-173.78z"/></svg>