<svg xmlns="http://www.w3.org/2000/svg" viewBox="0 0 1100 200" fill="#555" fill-rule="nonzero" stroke-linejoin="round" stroke-miterlimit="2" xmlns:v="https://vecta.io/nano"><path d="M-13.974-71.912h81.661L174.718 54.05V-71.912h82.454v227.749h-82.454L68.48 30.829v125.008h-82.454V-71.912zm500.372 190.215h-99.896l-13.874 37.534h-89.589L389.674-71.912h95.535l106.635 227.749h-91.571l-13.874-37.534zM467.767 69L436.45-12.748 405.53 69h62.237zM612.782-71.912h248.154v45.486L701.975 106.852h164.907v48.985H597.719V108.76L755.094-23.245H612.782v-48.667zM761.437-85.59h-55.498l-43.209-44.532h47.966l23.388 23.856 23.785-23.856h47.966L761.437-85.59zm144.761 13.678h235.072v48.667H993.806v36.262h136.762v46.44H993.806v44.85h151.429v51.53H906.198V-71.912z"/></svg>