<?xml version="1.0" encoding="UTF-8" standalone="no"?><!DOCTYPE svg PUBLIC "-//W3C//DTD SVG 1.1//EN" "http://www.w3.org/Graphics/SVG/1.1/DTD/svg11.dtd"><svg width="100%" height="100%" viewBox="0 0 264 48" version="1.1" xmlns="http://www.w3.org/2000/svg" xmlns:xlink="http://www.w3.org/1999/xlink" xml:space="preserve" xmlns:serif="http://www.serif.com/" style="fill-rule:evenodd;clip-rule:evenodd;stroke-linejoin:round;stroke-miterlimit:2;"><path d="M-3.021,-15.134l11.556,-0l15.08,27.429l0,-27.429l11.665,-0l0,49.581l-11.665,0l-14.998,-27.226l-0,27.226l-11.638,0l-0,-49.581Z" style="fill-rule:nonzero;"/><path d="M43.476,-15.134l33.166,-0l-0,10.586l-20.763,-0l0,7.88l19.26,-0l0,10.112l-19.26,0l0,9.775l21.364,-0l-0,11.228l-33.767,0l0,-49.581Z" style="fill-rule:nonzero;"/><path d="M83.963,-15.134l12.376,-0l0,18.737l12.977,-18.737l16.446,-0l-14.588,18.703l15.244,30.878l-15.244,0l-8.442,-20.394l-6.393,8.286l0,12.108l-12.376,0l0,-49.581Z" style="fill-rule:nonzero;"/><path d="M127.046,9.69c0,-8.094 1.821,-14.396 5.464,-18.906c3.643,-4.509 8.715,-6.764 15.217,-6.764c6.666,0 11.802,2.215 15.408,6.646c3.606,4.431 5.409,10.637 5.409,18.618c0,5.795 -0.788,10.547 -2.363,14.256c-1.575,3.709 -3.852,6.595 -6.83,8.658c-2.978,2.063 -6.688,3.095 -11.132,3.095c-4.517,-0 -8.255,-0.891 -11.215,-2.672c-2.96,-1.781 -5.359,-4.6 -7.199,-8.455c-1.839,-3.856 -2.759,-8.681 -2.759,-14.476Zm12.376,0.068c-0,5.005 0.751,8.602 2.254,10.789c1.502,2.187 3.547,3.28 6.133,3.28c2.659,0 4.717,-1.071 6.174,-3.213c1.457,-2.142 2.185,-5.986 2.185,-11.532c0,-4.668 -0.76,-8.078 -2.281,-10.231c-1.52,-2.154 -3.583,-3.23 -6.187,-3.23c-2.496,-0 -4.499,1.093 -6.011,3.28c-1.511,2.187 -2.267,5.806 -2.267,10.857Z" style="fill-rule:nonzero;"/><path d="M175.292,-15.134l11.556,-0l15.08,27.429l0,-27.429l11.666,-0l-0,49.581l-11.666,0l-14.998,-27.226l0,27.226l-11.638,0l0,-49.581Z" style="fill-rule:nonzero;"/><path d="M219.003,-15.134l37.619,-0l-0,12.243l-12.622,-0l0,37.338l-12.376,0l0,-37.338l-12.621,-0l-0,-12.243Z" style="fill-rule:nonzero;"/><path d="M283.067,26.263l-14.097,-0l-1.94,8.184l-12.649,0l15.053,-49.581l13.496,-0l15.053,49.581l-12.949,0l-1.967,-8.184Zm-2.596,-10.722l-4.425,-17.823l-4.399,17.823l8.824,0Z" style="fill-rule:nonzero;"/></svg>