<svg xmlns="http://www.w3.org/2000/svg" xmlns:xlink="http://www.w3.org/1999/xlink" viewBox="0 0 1100 200" fill="#eee" fill-rule="evenodd" stroke-linejoin="round" stroke-miterlimit="2" xmlns:v="https://vecta.io/nano"><g fill-rule="nonzero"><path d="M-18.473-26.855h51.922l68.053 80.09v-80.09h52.426v144.809h-52.426L33.953 38.471v79.483h-52.426V-26.855z"/><use xlink:href="#B"/><use xlink:href="#C"/><path d="M569.562-26.855h51.922l68.053 80.09v-80.09h52.426v144.809h-52.426l-67.549-79.483v79.483h-52.426V-26.855z"/><use xlink:href="#B" x="588.031"/><use xlink:href="#C" x="588.036"/></g><defs ><path id="B" d="M266.094-26.855h55.955v78.674c0 16.584-1.764 29.124-5.545 37.82-3.529 8.697-11.09 15.978-21.928 21.843-11.09 6.067-25.205 9.101-42.596 9.101-18.148 0-32.262-2.022-42.344-6.067-9.83-3.843-17.643-9.708-23.189-17.191-5.293-7.685-8.57-16.989-9.578-28.315l53.434-5.865c0 6.472.756 11.326 2.016 14.36s3.529 5.461 6.553 7.483c2.268 1.213 5.293 1.82 9.074 1.82 6.301 0 10.838-1.82 13.863-5.461 2.773-3.843 4.285-10.112 4.285-18.809v-89.393z"/><path id="C" d="M352.038 45.752c0-23.663 8.318-42.067 24.701-55.214s39.32-19.82 68.557-19.82c29.994 0 53.182 6.472 69.314 19.416 16.383 12.944 24.449 30.944 24.449 54.405 0 16.787-3.529 30.742-10.586 41.663-7.057 10.719-17.391 19.214-30.75 25.281-13.359 5.865-30.246 8.899-50.158 8.899-20.416 0-37.303-2.629-50.662-7.685-13.359-5.258-23.945-13.551-32.262-24.674-8.318-11.326-12.602-25.483-12.602-42.27zm55.955.202c0 14.562 3.277 25.079 10.082 31.348 6.805 6.472 15.879 9.708 27.725 9.708s21.172-3.236 27.725-9.506 9.83-17.393 9.83-33.573c0-13.753-3.529-23.663-10.334-29.933s-16.131-9.506-27.725-9.506c-11.342 0-20.416 3.236-27.221 9.708-6.805 6.27-10.082 16.989-10.082 31.753z"/></defs></svg>