<svg xmlns="http://www.w3.org/2000/svg" viewBox="0 0 1100 200"  fill-rule="nonzero" stroke-linejoin="round" stroke-miterlimit="2" xmlns:v="https://vecta.io/nano"><path d="M-27.257 46.283c0-27.53 9.677-48.943 28.738-64.237s45.746-23.06 79.762-23.06c34.896 0 61.874 7.53 80.642 22.589 19.061 15.059 28.445 36.001 28.445 63.296 0 19.53-4.105 35.766-12.316 48.472-8.211 12.471-20.234 22.354-35.776 29.413-15.542 6.824-35.189 10.353-58.355 10.353-23.753 0-43.4-3.059-58.942-8.941-15.542-6.118-27.858-15.765-37.535-28.707-9.677-13.177-14.662-29.648-14.662-49.178zm65.1.235c0 16.942 3.812 29.177 11.73 36.472 7.918 7.53 18.474 11.294 32.257 11.294s24.632-3.765 32.257-11.059 11.436-20.236 11.436-39.06c0-16.001-4.105-27.53-12.023-34.825S94.732-1.718 81.243-1.718c-13.196 0-23.753 3.765-31.67 11.294-7.918 7.294-11.73 19.765-11.73 36.942zM226.108-38.19h96.477c19.061 0 34.309 2.118 46.039 6.353 11.73 4 21.407 9.883 29.031 17.648s13.196 16.706 16.422 27.06c3.519 10.353 5.278 21.177 5.278 32.707 0 17.883-2.639 31.766-7.624 41.884-5.278 9.883-12.316 18.118-21.407 24.942-9.091 6.588-18.768 11.059-29.031 13.177-14.369 3.059-27.272 4.706-38.708 4.706h-96.477V-38.19zM290.915-.071v92.003h16.128c13.489 0 23.166-1.177 28.738-3.53 5.865-2.353 10.264-6.588 13.489-12.706 3.226-5.883 4.985-15.765 4.985-29.177 0-17.883-3.812-30.119-10.85-36.707-7.331-6.588-19.354-9.883-36.069-9.883h-16.422zm163.283 130.357V-38.19h108.207c19.941 0 35.189 1.412 46.039 4.235 10.557 2.588 19.061 7.765 25.512 15.295s9.677 16.471 9.677 27.295c0 9.412-2.346 17.412-7.331 24.236s-11.73 12.236-20.527 16.471c-5.572 2.588-13.196 4.941-22.873 6.588 7.918 2.118 13.489 4.235 17.008 6.118 2.346 1.412 5.865 4.471 10.264 8.941 4.692 4.471 7.624 8 9.091 10.353l31.377 48.943h-73.311l-34.603-51.531c-4.399-6.588-8.211-10.824-11.73-12.942-4.692-2.588-9.97-4-15.835-4h-5.865v68.473h-65.1zm65.1-100.238h27.565c2.932 0 8.504-.706 17.008-2.353 4.399-.471 7.918-2.353 10.557-5.177s4.105-6.118 4.105-9.883c0-5.412-2.053-9.412-6.451-12.471-4.399-2.824-12.316-4.235-24.046-4.235h-28.738v34.119zm148.897 16.235c0-27.53 9.677-48.943 28.738-64.237s45.746-23.06 79.762-23.06c34.896 0 61.874 7.53 80.642 22.589 19.061 15.059 28.445 36.001 28.445 63.296 0 19.53-4.105 35.766-12.316 48.472-8.211 12.471-20.234 22.354-35.776 29.413-15.542 6.824-35.189 10.353-58.355 10.353-23.753 0-43.4-3.059-58.942-8.941-15.542-6.118-27.858-15.765-37.535-28.707-9.677-13.177-14.662-29.648-14.662-49.178zm65.1.235c0 16.942 3.812 29.177 11.73 36.472 7.918 7.53 18.474 11.294 32.257 11.294s24.632-3.765 32.257-11.059 11.436-20.236 11.436-39.06c0-16.001-4.105-27.53-12.023-34.825S790.185-1.718 776.695-1.718c-13.196 0-23.753 3.765-31.67 11.294-7.918 7.294-11.73 19.765-11.73 36.942zM921.264-38.19h60.408l79.176 93.179V-38.19h60.995v168.476h-60.995l-78.589-92.473v92.473h-60.995V-38.19z"/></svg>