<svg xmlns="http://www.w3.org/2000/svg" viewBox="0 0 1100 200" fill="#eee" fill-rule="nonzero" stroke-linejoin="round" stroke-miterlimit="2" xmlns:v="https://vecta.io/nano"><path d="M-16.559-43.222H77.9c20.535 0 35.936 3.913 46.203 11.74s15.401 19.155 15.401 33.572c0 14.829-5.647 26.569-16.684 34.808-11.294 8.445-28.235 12.564-51.08 12.564H40.424v54.787H-16.56V-43.222zm56.984 62.819h14.118c10.781 0 18.481-1.442 22.845-4.531 4.62-3.089 6.674-7.003 6.674-11.74 0-4.531-1.797-8.445-5.647-11.74s-11.037-4.737-21.818-4.737H40.424v32.748zm129.41 84.652V-43.222h94.716c17.454 0 30.802 1.236 40.299 3.707 9.241 2.266 16.684 6.797 22.331 13.388s8.471 14.418 8.471 23.892c0 8.239-2.053 15.241-6.417 21.214s-10.267 10.71-17.968 14.418c-4.877 2.266-11.551 4.325-20.021 5.767 6.93 1.854 11.807 3.707 14.888 5.355 2.053 1.236 5.134 3.913 8.984 7.827 4.107 3.913 6.674 7.003 7.957 9.062l27.465 42.841h-64.171L256.08 59.143c-3.85-5.767-7.187-9.474-10.267-11.328-4.107-2.266-8.727-3.501-13.861-3.501h-5.134v59.936h-56.984zm56.984-87.741h24.128c2.567 0 7.444-.618 14.888-2.06 3.85-.412 6.93-2.06 9.241-4.531s3.594-5.355 3.594-8.651c0-4.737-1.797-8.239-5.647-10.916-3.85-2.472-10.781-3.707-21.048-3.707H226.82v29.865zm141.9-59.73h152.213v31.513h-95.486v23.48h88.555v30.071h-88.555v29.041h98.053v33.366h-154.78V-43.222zm185.885 0h52.877l69.304 81.562v-81.562h53.39v147.471h-53.39l-68.791-80.944v80.944h-53.39V-43.222zM760.72 30.719c0-24.098 8.471-42.841 25.155-56.228s40.042-20.185 69.818-20.185c30.545 0 54.16 6.591 70.588 19.773 16.684 13.182 24.898 31.513 24.898 55.405 0 17.095-3.594 31.307-10.781 42.429-7.187 10.916-17.711 19.567-31.315 25.746-13.604 5.973-30.802 9.062-51.08 9.062-20.791 0-37.989-2.678-51.593-7.827-13.604-5.355-24.385-13.8-32.855-25.128-8.471-11.534-12.834-25.952-12.834-43.047zm56.984.206c0 14.829 3.337 25.54 10.267 31.925 6.93 6.591 16.171 9.886 28.235 9.886s21.561-3.295 28.235-9.68 10.011-17.713 10.011-34.19c0-14.006-3.594-24.098-10.524-30.483s-16.428-9.68-28.235-9.68c-11.551 0-20.791 3.295-27.722 9.886-6.93 6.385-10.267 17.301-10.267 32.337zm154.27 24.51l53.903-2.678c1.283 7.003 3.594 12.358 7.187 16.065 5.904 5.973 14.118 9.062 25.155 9.062 7.957 0 14.374-1.648 18.738-4.737 4.364-2.884 6.417-6.591 6.417-10.504s-2.053-7.209-6.16-10.298-13.861-5.767-29.005-8.445c-24.898-4.531-42.866-10.504-53.39-17.919-10.781-7.621-15.914-17.095-15.914-28.629 0-7.415 2.567-14.624 8.214-21.42 5.39-6.797 13.604-11.946 24.642-15.859s25.925-5.767 45.176-5.767c23.358 0 41.326 3.501 53.647 10.504s19.765 18.125 22.075 33.366L1079.011.854c-1.283-6.797-4.364-11.534-8.984-14.624-4.62-2.884-10.781-4.531-18.738-4.531-6.674 0-11.551 1.236-14.888 3.501s-5.134 4.943-5.134 8.033c0 2.472 1.283 4.531 4.107 6.385 2.824 2.06 8.984 3.707 18.995 5.561 24.898 4.119 42.609 8.445 53.39 12.976 10.781 4.325 18.481 9.886 23.615 16.271 4.877 6.591 7.187 13.8 7.187 21.832 0 9.474-3.337 18.125-9.754 26.158s-15.658 14.006-27.208 18.125c-11.807 4.119-26.438 6.179-44.406 6.179-31.315 0-52.877-4.737-64.941-14.418s-18.738-22.038-20.278-36.868z"/></svg>