<svg xmlns="http://www.w3.org/2000/svg" viewBox="0 0 1100 200" fill="#555" fill-rule="nonzero" stroke-linejoin="round" stroke-miterlimit="2" xmlns:v="https://vecta.io/nano"><path d="M-23.462 155.976V-76.906H126.11c27.563 0 48.641 1.952 63.639 5.855 14.592 3.578 26.347 10.733 35.265 21.141s13.376 22.768 13.376 37.729c0 13.01-3.243 24.069-10.134 33.501s-16.214 16.913-28.374 22.768c-7.702 3.578-18.241 6.83-31.617 9.107 10.944 2.927 18.646 5.855 23.51 8.457 3.243 1.952 8.107 6.18 14.187 12.36 6.486 6.18 10.539 11.059 12.566 14.311l43.372 67.653H160.565l-47.831-71.231c-6.08-9.107-11.35-14.962-16.214-17.889-6.486-3.578-13.782-5.529-21.889-5.529h-8.107v94.649h-89.987zM66.525 17.418h38.102c4.053 0 11.755-.976 23.51-3.253 6.08-.651 10.944-3.253 14.592-7.156s5.675-8.457 5.675-13.661c0-7.481-2.837-13.01-8.918-17.238-6.08-3.903-17.024-5.855-33.238-5.855H66.525v47.162z"/><path d="M469.369 117.596H367.222l-14.187 38.38h-91.608L370.465-76.906h97.688l109.038 232.882h-93.635l-14.187-38.38zm-19.051-50.414l-32.022-83.59-31.617 83.59h63.639zM726.699-76.906h89.987V49.618c0 26.671-2.837 46.837-8.918 60.822-5.675 13.986-17.835 25.695-35.265 35.127-17.835 9.758-40.534 14.636-68.503 14.636-29.185 0-51.884-3.253-68.098-9.758-15.808-6.18-28.374-15.612-37.292-27.647-8.512-12.36-13.782-27.321-15.403-45.535l85.933-9.432c0 10.408 1.216 18.214 3.243 23.093s5.675 8.782 10.539 12.034c3.648 1.952 8.512 2.927 14.592 2.927 10.134 0 17.43-2.927 22.294-8.782 4.459-6.18 6.891-16.263 6.891-30.249v-143.76zm317.831 194.502H942.383l-14.187 38.38h-91.608L945.625-76.906h97.688l109.038 232.882h-93.635l-14.187-38.38zm-19.051-50.414l-32.022-83.59-31.617 83.59h63.639z"/></svg>