<svg xmlns="http://www.w3.org/2000/svg" viewBox="0 0 1100 200" fill="#eee"  fill-rule="nonzero" stroke-linejoin="round" stroke-miterlimit="2" xmlns:v="https://vecta.io/nano"><path d="M-20.932 89.907l70.211-5.123c1.672 13.398 4.681 23.643 9.361 30.736 7.69 11.427 18.389 17.338 32.765 17.338 10.364 0 18.723-3.152 24.407-9.063 5.684-5.517 8.358-12.609 8.358-20.096s-2.675-13.792-8.024-19.702-18.054-11.033-37.78-16.156C45.935 59.172 22.531 47.744 8.824 33.559-5.219 18.979-11.905.853-11.905-21.213c0-14.186 3.343-27.977 10.699-40.981 7.021-13.003 17.72-22.855 32.096-30.341s33.768-11.033 58.843-11.033c30.425 0 53.828 6.699 69.876 20.096s25.744 34.676 28.753 63.835l-69.876 5.123c-1.672-13.003-5.684-22.067-11.702-27.977-6.018-5.517-14.042-8.669-24.407-8.669-8.693 0-15.045 2.364-19.392 6.699s-6.687 9.457-6.687 15.368c0 4.729 1.672 8.669 5.349 12.215 3.678 3.94 11.702 7.093 24.741 10.639 32.431 7.881 55.5 16.156 69.542 24.825 14.042 8.275 24.072 18.914 30.759 31.13 6.352 12.609 9.361 26.401 9.361 41.769 0 18.126-4.346 34.676-12.705 50.044s-20.395 26.795-35.44 34.676c-15.38 7.881-34.437 11.821-57.84 11.821-40.789 0-68.873-9.063-84.587-27.583s-24.407-42.163-26.413-70.534zm401.592 46.892h-84.253l-11.702 46.497h-75.56L299.082-98.84h80.575l89.937 282.136h-77.232l-11.702-46.497zm-15.714-61.077l-26.413-101.27-26.078 101.27h52.491zm129.335 107.574V-98.84h123.37c22.735 0 40.12 2.364 52.491 7.093 12.036 4.334 21.732 13.003 29.087 25.613s11.033 27.583 11.033 45.709c0 15.762-2.675 29.159-8.358 40.587s-13.373 20.49-23.404 27.583c-6.352 4.334-15.045 8.275-26.078 11.033 9.027 3.546 15.38 7.093 19.392 10.245 2.675 2.364 6.687 7.487 11.702 14.974 5.349 7.487 8.693 13.398 10.364 17.338l35.774 81.961H646.07L606.618 97c-5.015-11.033-9.361-18.126-13.373-21.672-5.349-4.334-11.367-6.699-18.054-6.699h-6.687v114.667h-74.223zm74.223-167.863h31.428c3.343 0 9.696-1.182 19.392-3.94 5.015-.788 9.027-3.94 12.036-8.669s4.681-10.245 4.681-16.55c0-9.063-2.34-15.762-7.355-20.884-5.015-4.729-14.042-7.093-27.416-7.093h-32.765v57.137z"/><path d="M900.781 136.799h-84.253l-11.702 46.497h-75.56L819.203-98.84h80.575l89.937 282.136h-77.232l-11.702-46.497zm-15.714-61.077l-26.413-101.27-26.078 101.27h52.491zM1113.025-98.84h74.223V54.443c0 32.312-2.34 56.742-7.355 73.686-4.681 16.944-14.711 31.13-29.087 42.557-14.711 11.821-33.434 17.732-56.503 17.732-24.072 0-42.795-3.94-56.169-11.821-13.039-7.487-23.404-18.914-30.759-33.494-7.021-14.974-11.367-33.1-12.705-55.166l70.879-11.427c0 12.609 1.003 22.067 2.675 27.977s4.681 10.639 8.693 14.58c3.009 2.364 7.021 3.546 12.036 3.546 8.358 0 14.376-3.546 18.389-10.639 3.678-7.487 5.684-19.702 5.684-36.646V-98.84z"/></svg>