<svg xmlns="http://www.w3.org/2000/svg" viewBox="0 0 1100 200" fill="#eee" fill-rule="nonzero" stroke-linejoin="round" stroke-miterlimit="2" xmlns:v="https://vecta.io/nano"><path d="M-68.722 99.306l70.237-3.489c1.672 9.125 4.682 16.103 9.365 20.933 7.693 7.783 18.395 11.809 32.777 11.809 10.368 0 18.73-2.147 24.416-6.173 5.686-3.757 8.362-8.588 8.362-13.687s-2.676-9.393-8.027-13.419-18.061-7.515-37.794-11.003C-1.83 78.373-25.242 70.59-38.955 60.928c-14.047-9.93-20.737-22.275-20.737-37.304 0-9.662 3.345-19.055 10.703-27.911 7.024-8.856 17.727-15.566 32.108-20.665s33.781-7.515 58.865-7.515c30.436 0 53.849 4.562 69.903 13.687s25.754 23.617 28.764 43.477l-69.903 3.489c-1.672-8.856-5.686-15.029-11.706-19.055-6.02-3.757-14.047-5.904-24.416-5.904-8.696 0-15.051 1.61-19.399 4.562S8.538 14.23 8.538 18.256c0 3.221 1.672 5.904 5.351 8.32 3.679 2.684 11.706 4.831 24.75 7.246C71.082 39.19 94.16 44.825 108.207 50.73c14.047 5.636 24.081 12.882 30.771 21.202 6.355 8.588 9.365 17.981 9.365 28.448 0 12.345-4.348 23.617-12.71 34.084s-20.402 18.25-35.453 23.617c-15.385 5.368-34.45 8.051-57.862 8.051-40.804 0-68.899-6.173-84.619-18.786s-24.416-28.716-26.423-48.039zm401.746 31.937h-84.285l-11.706 31.668h-75.589l89.971-192.158h80.606l89.971 192.158H344.73l-11.706-31.668zm-15.72-41.598l-26.423-68.973-26.088 68.973h52.511zm129.379 73.267V-29.246H570.1c22.743 0 40.136 1.61 52.511 4.831 12.041 2.952 21.74 8.856 29.098 17.445s11.037 18.786 11.037 31.132c0 10.735-2.676 19.86-8.362 27.643s-13.379 13.956-23.412 18.786c-6.355 2.952-15.051 5.636-26.088 7.515 9.031 2.415 15.385 4.831 19.399 6.978 2.676 1.61 6.689 5.099 11.706 10.198 5.351 5.099 8.696 9.125 10.368 11.809l35.788 55.822h-83.616l-39.467-58.775c-5.017-7.515-9.365-12.345-13.379-14.761-5.351-2.952-11.372-4.562-18.061-4.562h-6.689v78.098h-74.251zm74.251-114.329h31.44c3.345 0 9.699-.805 19.399-2.684 5.017-.537 9.031-2.684 12.041-5.904s4.682-6.978 4.682-11.272c0-6.173-2.341-10.735-7.358-14.224-5.017-3.221-14.047-4.831-27.426-4.831h-32.777v38.915z"/><path d="M853.336 131.243h-84.285l-11.706 31.668h-75.589l89.971-192.158h80.606l89.971 192.158h-77.261l-11.706-31.668zm-15.72-41.598l-26.423-68.973-26.088 68.973h52.511zm228.051-118.891h74.251V75.152c0 22.007-2.341 38.646-7.358 50.186-4.682 11.54-14.716 21.202-29.098 28.985-14.716 8.051-33.446 12.077-56.524 12.077-24.081 0-42.811-2.684-56.19-8.051-13.044-5.099-23.412-12.882-30.771-22.812-7.024-10.198-11.372-22.544-12.71-37.573l70.906-7.783c0 8.588 1.003 15.029 2.676 19.055s4.682 7.246 8.696 9.93c3.01 1.61 7.024 2.415 12.041 2.415 8.362 0 14.382-2.415 18.395-7.246 3.679-5.099 5.686-13.419 5.686-24.959V-29.246z"/></svg>