<svg xmlns="http://www.w3.org/2000/svg" viewBox="0 0 1100 200"  fill-rule="nonzero" stroke-linejoin="round" stroke-miterlimit="2" xmlns:v="https://vecta.io/nano"><path d="M-34.687 67.737l54.483-2.706c1.297 7.078 3.632 12.491 7.264 16.238 5.967 6.037 14.269 9.16 25.425 9.16 8.043 0 14.529-1.665 18.939-4.788 4.41-2.914 6.486-6.662 6.486-10.617s-2.076-7.286-6.227-10.409-14.01-5.829-29.317-8.535C17.201 51.499-.96 45.462-11.597 37.968-22.493 30.265-27.682 20.689-27.682 9.031c0-7.494 2.594-14.781 8.302-21.651 5.448-6.87 13.75-12.074 24.906-16.03s26.204-5.829 45.662-5.829c23.609 0 41.77 3.539 54.223 10.617s19.977 18.32 22.312 33.725L73.5 12.57C72.202 5.7 69.089.912 64.419-2.211c-4.67-2.914-10.897-4.58-18.939-4.58-6.745 0-11.675 1.249-15.048 3.539s-5.189 4.996-5.189 8.119c0 2.498 1.297 4.58 4.151 6.454 2.854 2.082 9.08 3.747 19.199 5.621 25.166 4.164 43.067 8.535 53.964 13.115 10.897 4.372 18.68 9.993 23.869 16.446 4.929 6.662 7.264 13.948 7.264 22.067 0 9.576-3.373 18.32-9.859 26.439s-15.826 14.156-27.501 18.32c-11.934 4.164-26.722 6.245-44.883 6.245-31.652 0-53.445-4.788-65.639-14.572s-18.939-22.275-20.496-37.264zM67.792-40.932H31.47L3.191-70.077h31.392L49.89-54.464l15.566-15.613h31.392L67.792-40.932zm81.767 8.952h174.344V4.867H265.53v112.208h-57.336V4.867H149.56V-31.98zm200.331 0h153.849V-.129h-96.512v23.732h89.507v30.394h-89.507V83.35h99.106v33.725H349.89V-31.98zm187.623 0h57.336v56.416l60.19-56.416h76.276L663.86 24.228l70.568 92.848H663.86l-39.176-61.204-29.836 24.773v36.431h-57.336V-31.98zm215.855 0h153.849V-.129h-96.512v23.732h89.507v30.394h-89.507V83.35h99.106v33.725H753.368V-31.98zm188.136 149.056V-31.98h95.734c17.642 0 31.133 1.249 40.732 3.747 9.34 2.29 16.864 6.87 22.571 13.532s8.562 14.572 8.562 24.149c0 8.327-2.076 15.405-6.486 21.442s-10.378 10.825-18.161 14.572c-4.929 2.29-11.675 4.372-20.236 5.829 7.005 1.874 11.934 3.747 15.048 5.413 2.076 1.249 5.189 3.955 9.08 7.911 4.151 3.955 6.745 7.078 8.043 9.16l27.76 43.301h-64.86l-30.614-45.591c-3.892-5.829-7.264-9.576-10.378-11.45-4.151-2.29-8.821-3.539-14.01-3.539H999.1v60.58h-57.596zM999.1 28.392h24.387c2.594 0 7.524-.625 15.048-2.082 3.892-.416 7.005-2.082 9.34-4.58s3.632-5.413 3.632-8.743c0-4.788-1.816-8.327-5.708-11.033-3.892-2.498-10.897-3.747-21.274-3.747H999.1v30.186z"/></svg>