<svg xmlns="http://www.w3.org/2000/svg" viewBox="0 0 1100 200"  fill-rule="nonzero" stroke-linejoin="round" stroke-miterlimit="2" xmlns:v="https://vecta.io/nano"><path d="M-23.27 56.889l47.698-2.369c1.136 6.197 3.18 10.935 6.36 14.216 5.224 5.285 12.492 8.019 22.259 8.019 7.041 0 12.72-1.458 16.581-4.192 3.861-2.552 5.678-5.832 5.678-9.295s-1.817-6.379-5.451-9.113-12.265-5.103-25.666-7.472c-22.032-4.01-37.931-9.295-47.244-15.856-9.54-6.743-14.082-15.127-14.082-25.334 0-6.561 2.271-12.94 7.268-18.955 4.77-6.014 12.038-10.571 21.805-14.034s22.941-5.103 39.976-5.103c20.669 0 36.569 3.098 47.471 9.295s17.489 16.038 19.534 29.525l-47.472 2.37c-1.136-6.014-3.861-10.206-7.95-12.94-4.088-2.552-9.54-4.01-16.581-4.01-5.905 0-10.221 1.094-13.174 3.098s-4.543 4.374-4.543 7.108c0 2.187 1.136 4.01 3.634 5.65 2.498 1.823 7.95 3.281 16.808 4.921C71.671 16.063 87.343 19.89 96.883 23.9c9.54 3.827 16.354 8.748 20.896 14.398 4.316 5.832 6.36 12.211 6.36 19.319 0 8.384-2.953 16.038-8.631 23.146s-13.855 12.393-24.076 16.038c-10.448 3.645-23.395 5.468-39.294 5.468-27.71 0-46.79-4.192-57.465-12.758s-16.58-19.5-17.943-32.622zm278.505-87.301h50.197v77.823c0 7.655-1.59 14.945-4.543 21.871-2.953 6.743-7.723 12.758-14.082 17.861-6.36 5.285-13.174 8.748-20.215 10.935-9.767 2.916-21.351 4.374-34.979 4.374-7.95 0-16.581-.547-25.893-1.458-9.54-.911-17.262-2.552-23.622-5.285-6.133-2.552-12.038-6.379-17.262-11.118-5.224-4.921-8.631-10.024-10.675-15.127-2.953-8.384-4.543-15.674-4.543-22.053v-77.823h49.97v79.646c0 7.108 2.498 12.758 7.495 16.768s11.811 6.014 20.442 6.014 15.445-2.005 20.442-6.014c4.77-3.827 7.268-9.477 7.268-16.768v-79.646zm74.728 87.301l47.698-2.369c1.136 6.197 3.18 10.935 6.36 14.216 5.224 5.285 12.492 8.019 22.259 8.019 7.041 0 12.72-1.458 16.581-4.192 3.861-2.552 5.678-5.832 5.678-9.295s-1.817-6.379-5.451-9.113-12.265-5.103-25.666-7.472c-22.032-4.01-37.931-9.295-47.244-15.856-9.54-6.743-14.082-15.127-14.082-25.334 0-6.561 2.271-12.94 7.268-18.955 4.77-6.014 12.038-10.571 21.805-14.034s22.941-5.103 39.976-5.103c20.669 0 36.569 3.098 47.471 9.295S470.105-7.266 472.15 6.221L424.679 8.59c-1.136-6.014-3.861-10.206-7.95-12.94-4.088-2.552-9.54-4.01-16.581-4.01-5.905 0-10.221 1.094-13.174 3.098s-4.543 4.374-4.543 7.108c0 2.187 1.136 4.01 3.634 5.65 2.498 1.823 7.95 3.281 16.808 4.921 22.032 3.645 37.704 7.472 47.244 11.482 9.54 3.827 16.354 8.748 20.896 14.398 4.316 5.832 6.36 12.211 6.36 19.319 0 8.384-2.953 16.038-8.631 23.146S454.887 93.155 444.666 96.8c-10.448 3.645-23.395 5.468-39.294 5.468-27.71 0-46.79-4.192-57.465-12.758s-16.581-19.501-17.944-32.624zm89.718-95.137h-31.799l-24.758-25.516h27.483l13.401 13.669 13.628-13.669h27.483L419.68-38.248zm84.989 7.836h50.424v130.495H504.67zm79.988 65.43c0-21.324 7.495-37.909 22.259-49.756s35.433-17.861 61.781-17.861c27.029 0 47.925 5.832 62.462 17.497 14.764 11.664 22.032 27.885 22.032 49.027 0 15.127-3.18 27.703-9.54 37.545-6.36 9.66-15.672 17.314-27.71 22.782-12.038 5.285-27.256 8.019-45.2 8.019-18.398 0-33.616-2.369-45.654-6.926-12.038-4.739-21.578-12.211-29.073-22.235-7.495-10.206-11.357-22.964-11.357-38.091zm50.424.182c0 13.122 2.953 22.6 9.085 28.25 6.133 5.832 14.309 8.748 24.985 8.748s19.079-2.916 24.985-8.566 8.858-15.674 8.858-30.254c0-12.393-3.18-21.324-9.313-26.974s-14.537-8.566-24.985-8.566c-10.221 0-18.398 2.916-24.531 8.748-6.133 5.65-9.085 15.309-9.085 28.614zm145.593-65.612h46.79l61.326 72.173v-72.173h47.244v130.495h-47.244l-60.872-71.626v71.626h-47.244V-30.412zm286.698 108.989h-57.238l-7.95 21.506h-51.332l61.099-130.495h54.739l61.099 130.495h-52.468l-7.95-21.506zm-10.675-28.25l-17.944-46.84-17.716 46.84h35.66z"/></svg>