<svg xmlns="http://www.w3.org/2000/svg" xmlns:xlink="http://www.w3.org/1999/xlink" viewBox="0 0 1100 200" fill="#555" fill-rule="evenodd" stroke-linejoin="round" stroke-miterlimit="2" xmlns:v="https://vecta.io/nano"><g fill-rule="nonzero"><path d="M-29.139-24.424h174.344v36.848H86.831v112.208H29.494V12.423h-58.634v-36.848z"/><use xlink:href="#B"/><path d="M356.165 124.632V-24.424h95.734c17.642 0 31.133 1.249 40.732 3.747 9.34 2.29 16.864 6.87 22.571 13.532s8.562 14.572 8.562 24.149c0 8.327-2.076 15.405-6.486 21.442S506.9 49.271 499.117 53.018c-4.929 2.29-11.675 4.372-20.236 5.829 7.005 1.874 11.934 3.747 15.048 5.413 2.076 1.249 5.189 3.955 9.08 7.911 4.151 3.955 6.745 7.078 8.043 9.16l27.76 43.301h-64.86L443.337 79.04c-3.892-5.829-7.264-9.576-10.378-11.45-4.151-2.29-8.821-3.539-14.01-3.539h-5.189v60.58h-57.596zm57.596-88.684h24.387c2.594 0 7.524-.625 15.048-2.082 3.892-.416 7.005-2.082 9.34-4.58s3.632-5.413 3.632-8.743c0-4.788-1.816-8.327-5.708-11.033-3.892-2.498-10.897-3.747-21.274-3.747h-25.425v30.186z"/><use xlink:href="#B" x="403.6"/><path d="M759.248-24.424h107.409c17.901 0 31.652 3.539 41.251 10.617 9.599 7.286 14.269 16.03 14.269 26.439 0 8.952-3.373 16.446-10.118 22.691-4.67 4.164-11.415 7.494-20.236 9.993 13.491 2.706 23.35 7.078 29.576 13.323s9.34 14.156 9.34 23.524c0 7.703-2.076 14.781-6.745 20.818-4.41 6.245-10.378 11.242-18.161 14.781-4.929 2.29-12.194 3.747-21.793 4.788-12.972 1.457-21.534 2.082-25.685 2.082h-99.106V-24.424zm57.855 58.498h24.906c9.08 0 15.307-1.249 18.68-3.747 3.632-2.498 5.189-6.037 5.189-10.617 0-4.372-1.557-7.911-5.189-10.201-3.373-2.498-9.599-3.747-18.161-3.747h-25.425v28.312zm0 58.498h29.317c9.859 0 16.864-1.457 20.755-4.164 4.151-2.914 6.227-6.662 6.227-11.45 0-4.372-2.076-7.911-6.227-10.617-3.892-2.498-10.897-3.955-21.015-3.955h-29.057v30.186z"/><use xlink:href="#B" x="802.771"/></g><defs ><path id="B" d="M267.998 100.067h-65.379l-9.08 24.565h-58.634l69.79-149.056h62.525l69.79 149.056h-59.931l-9.08-24.565zm-12.194-32.268l-20.496-53.502-20.236 53.502h40.732z"/></defs></svg>