<svg xmlns="http://www.w3.org/2000/svg" viewBox="0 0 1100 200" fill="#555" fill-rule="nonzero" stroke-linejoin="round" stroke-miterlimit="2" xmlns:v="https://vecta.io/nano"><path d="M112.614-37.361h62.274v96.547c0 9.496-1.972 18.541-5.636 27.133-3.663 8.366-9.581 15.827-17.471 22.158-7.89 6.557-16.343 10.853-25.079 13.566-12.117 3.618-26.488 5.427-43.395 5.427-9.862 0-20.57-.678-32.123-1.809-11.835-1.131-21.416-3.165-29.305-6.557-7.608-3.165-14.935-7.914-21.416-13.792-6.481-6.105-10.708-12.436-13.244-18.767-3.663-10.401-5.636-19.445-5.636-27.359v-96.547h61.992v98.809c0 8.818 3.1 15.827 9.299 20.802s14.653 7.462 25.361 7.462 19.161-2.487 25.361-7.462c5.917-4.748 9.017-11.758 9.017-20.802v-98.809zm104.264 0h92.707c18.316 0 32.969 2.035 44.24 6.105 11.271 3.844 20.57 9.496 27.897 16.958s12.68 16.054 15.78 26.002c3.381 9.949 5.072 20.35 5.072 31.429 0 17.184-2.536 30.524-7.326 40.247-5.072 9.496-11.835 17.41-20.57 23.967-8.735 6.331-18.034 10.627-27.897 12.662-13.807 2.939-26.206 4.522-37.195 4.522h-92.707V-37.361zm62.274 36.63v88.408h15.498c12.962 0 22.261-1.131 27.615-3.392 5.636-2.261 9.862-6.331 12.962-12.21 3.1-5.653 4.79-15.149 4.79-28.037 0-17.184-3.663-28.942-10.426-35.273-7.045-6.331-18.598-9.496-34.659-9.496h-15.78zm158.593-36.63h62.556v161.892h-62.556zm241.534 95.87l54.666 13.114c-3.663 12.21-9.581 22.611-17.471 30.75-7.89 8.366-17.752 14.471-29.305 18.767-11.835 4.07-26.488 6.331-44.804 6.331-21.697 0-39.731-2.713-53.539-7.688-14.089-5.2-25.924-14.245-36.068-27.133s-15.216-29.394-15.216-49.291c0-26.907 9.017-47.482 26.769-61.953 17.752-14.245 42.831-21.48 75.236-21.48 25.361 0 45.367 4.07 60.02 12.436 14.371 8.14 25.361 20.802 32.405 37.986l-54.948 9.723c-1.972-4.974-3.945-8.592-6.199-10.853-3.381-3.844-7.608-6.783-12.68-8.818s-10.708-3.165-16.907-3.165c-14.371 0-25.079 4.748-32.687 13.792-5.636 6.783-8.454 17.41-8.454 31.881 0 18.089 3.381 30.298 10.144 36.855 6.763 6.783 16.343 10.175 28.742 10.175 11.835 0 20.852-2.713 27.051-8.14 5.917-5.427 10.426-13.114 13.244-23.289zM638.702-80.095h48.185l-44.522 33.012h-26.769l23.106-33.012zM888.317 97.851h-71.009l-9.862 26.681h-63.683l75.8-161.892h67.91l75.8 161.892H898.18l-9.862-26.681zm-13.244-35.047L852.812 4.695l-21.979 58.109h44.24zm109.005 61.728V-37.361h103.978c19.161 0 33.814 1.357 44.24 4.07 10.144 2.487 18.316 7.462 24.515 14.697s9.299 15.827 9.299 26.228c0 9.044-2.254 16.732-7.045 23.289s-11.271 11.758-19.725 15.827c-5.354 2.487-12.68 4.748-21.979 6.331 7.608 2.035 12.962 4.07 16.343 5.879 2.254 1.357 5.636 4.296 9.862 8.592 4.509 4.296 7.326 7.688 8.735 9.949l30.151 47.03h-70.446l-33.25-49.517c-4.227-6.331-7.89-10.401-11.271-12.436-4.509-2.487-9.581-3.844-15.216-3.844h-5.636v65.797h-62.556zm62.556-96.321h26.488c2.818 0 8.172-.678 16.343-2.261 4.227-.452 7.608-2.261 10.144-4.974s3.945-5.879 3.945-9.496c0-5.2-1.972-9.044-6.199-11.984-4.227-2.713-11.835-4.07-23.106-4.07h-27.615V28.21z"/></svg>