<svg xmlns="http://www.w3.org/2000/svg" viewBox="0 0 1100 200" fill="#eee" fill-rule="nonzero" stroke-linejoin="round" stroke-miterlimit="2" xmlns:v="https://vecta.io/nano"><path d="M-39.222-31.713h71.146L81.296 95.013l48.759-126.726h68.692l-81.265 176.186H43.883L-39.222-31.713zm403.209 0h67.772V73.359c0 10.335-2.147 20.178-6.133 29.528-3.987 9.105-10.427 17.225-19.013 24.115-8.587 7.136-17.786 11.811-27.293 14.764-13.186 3.937-28.826 5.906-47.226 5.906-10.733 0-22.386-.738-34.959-1.969-12.88-1.23-23.306-3.445-31.893-7.136-8.28-3.445-16.253-8.612-23.306-15.01-7.053-6.644-11.653-13.534-14.413-20.424-3.987-11.319-6.133-21.162-6.133-29.774V-31.713h67.466V75.819c0 9.597 3.373 17.225 10.12 22.638s15.946 8.12 27.6 8.12 20.853-2.707 27.6-8.12c6.44-5.167 9.813-12.796 9.813-22.638V-31.713zm97.211 0h206.077v43.554h-68.999v132.631h-67.772V11.841h-69.306v-43.554zm237.719 176.186V-31.713h113.158c20.853 0 36.799 1.476 48.146 4.429 11.04 2.707 19.933 8.12 26.68 15.995s10.12 17.225 10.12 28.544c0 9.843-2.453 18.209-7.667 25.345s-12.266 12.796-21.466 17.225c-5.827 2.707-13.8 5.167-23.92 6.89 8.28 2.215 14.106 4.429 17.786 6.398 2.453 1.476 6.133 4.675 10.733 9.351 4.907 4.675 7.973 8.366 9.507 10.827l32.813 51.182h-76.666l-36.186-53.889c-4.6-6.89-8.587-11.319-12.266-13.534-4.907-2.707-10.427-4.183-16.56-4.183h-6.133v71.606h-68.079zm68.079-104.826h28.826c3.067 0 8.893-.738 17.786-2.461 4.6-.492 8.28-2.461 11.04-5.414s4.293-6.398 4.293-10.335c0-5.66-2.147-9.843-6.747-13.042-4.6-2.953-12.88-4.429-25.146-4.429h-30.053v35.68z"/><path d="M1071.763 115.437h-77.279l-10.733 29.036h-69.306l82.492-176.186h73.906l82.492 176.186h-70.839l-10.733-29.036zm-14.413-38.141l-24.226-63.24-23.92 63.24h48.146z"/></svg>