<svg xmlns="http://www.w3.org/2000/svg" viewBox="0 0 1100 200"  fill-rule="nonzero" stroke-linejoin="round" stroke-miterlimit="2" xmlns:v="https://vecta.io/nano"><path d="M-15.626-68.74h243.911v44.709L72.042 106.968H234.13v48.148H-30.432v-46.272L124.253-20.905H-15.626V-68.74zm146.113-13.444H75.938l-42.47-43.771h47.146l22.988 23.449 23.378-23.449h47.146l-43.639 43.771zm314.111 200.407H346.41l-13.637 36.892h-88.057L349.527-68.74h93.902L548.24 155.115h-90.006l-13.637-36.892zm-18.313-48.46l-30.781-80.35-30.391 80.35h61.173zM576.226-68.74h161.309c26.885 0 47.535 5.315 61.952 15.945 14.416 10.943 21.43 24.074 21.43 39.706 0 13.444-5.065 24.699-15.196 34.079-7.013 6.253-17.144 11.255-30.391 15.007 20.261 4.064 35.067 10.63 44.418 20.009s14.027 21.26 14.027 35.329c0 11.568-3.117 22.198-10.13 31.265-6.624 9.379-15.585 16.883-27.274 22.198-7.403 3.439-18.313 5.628-32.729 7.191-19.482 2.189-32.34 3.126-38.574 3.126h-148.84V-68.74zm86.888 87.854h37.405c13.637 0 22.988-1.876 28.054-5.628 5.455-3.752 7.793-9.067 7.793-15.945 0-6.566-2.338-11.881-7.793-15.32-5.065-3.752-14.416-5.628-27.274-5.628h-38.184v42.52zm0 87.854h44.029c14.806 0 25.326-2.189 31.171-6.253 6.234-4.377 9.351-10.005 9.351-17.196 0-6.566-3.117-11.881-9.351-15.945-5.845-3.752-16.365-5.94-31.56-5.94h-43.639v45.334zm380.969 11.255h-98.188l-13.637 36.892h-88.057L949.012-68.74h93.902l104.812 223.856h-90.006l-13.637-36.892zm-18.313-48.46l-30.781-80.35-30.391 80.35h61.173z"/></svg>