<svg xmlns="http://www.w3.org/2000/svg" viewBox="0 0 1100 200"  fill-rule="nonzero" stroke-linejoin="round" stroke-miterlimit="2" xmlns:v="https://vecta.io/nano"><path d="M-22.969-31.713h191.97V3.475L46.03 106.578h127.571v37.895H-34.622v-36.418L87.122 5.936H-22.969v-37.649zm362.219 147.15h-77.279l-10.733 29.036h-69.306l82.492-176.186h73.906l82.492 176.186h-70.839l-10.733-29.036zm-14.413-38.141l-24.226-63.24-23.92 63.24h48.146zM442.848-31.713h67.772v66.685l71.146-66.685h90.159l-79.732 66.439 83.412 109.747h-83.412l-46.306-72.344-35.266 29.282v43.062h-67.772V-31.713zm236.081 88.339c0-28.79 10.12-51.182 30.053-67.177s47.839-24.115 83.412-24.115c36.493 0 64.706 7.874 84.332 23.623 19.933 15.748 29.746 37.649 29.746 66.193 0 20.424-4.293 37.403-12.88 50.69-8.587 13.042-21.16 23.377-37.413 30.759-16.253 7.136-36.799 10.827-61.026 10.827-24.84 0-45.386-3.199-61.639-9.351-16.253-6.398-29.133-16.487-39.253-30.02-10.12-13.78-15.333-31.005-15.333-51.429zm68.079.246c0 17.717 3.987 30.513 12.266 38.141 8.28 7.874 19.32 11.811 33.733 11.811s25.76-3.937 33.733-11.565 11.96-21.162 11.96-40.848c0-16.733-4.293-28.79-12.573-36.418S806.5 6.428 792.393 6.428c-13.8 0-24.84 3.937-33.119 11.811-8.28 7.628-12.266 20.67-12.266 38.633zm196.57-88.585h63.172l82.799 97.444v-97.444h63.786v176.186h-63.786l-82.185-96.705v96.705h-63.786V-31.713z"/></svg>